<?xml version="1.0" encoding="UTF-8" standalone="no"?>
<!-- Created with Inkscape (http://www.inkscape.org/) -->

<svg
   width="6.3904419mm"
   height="5.3270416mm"
   viewBox="0 0 6.3904419 5.3270416"
   version="1.1"
   id="svg5"
   xmlns="http://www.w3.org/2000/svg"
   xmlns:svg="http://www.w3.org/2000/svg">
  <defs
     id="defs2" />
  <g
     id="layer1"
     transform="translate(-89.132219,-126.52115)">
    <text
       xml:space="preserve"
       style="font-weight:bold;font-size:1.76389px;font-family:Ebrima;-inkscape-font-specification:'Ebrima Bold';text-align:center;text-anchor:middle;fill:#87aade;fill-opacity:1;stroke-width:0.25;stroke-opacity:0.396078"
       x="89.038986"
       y="129.61475"
       id="text236-1"><tspan
         style="font-style:normal;font-variant:normal;font-weight:bold;font-stretch:normal;font-family:Poppins;-inkscape-font-specification:'Poppins Bold';text-align:start;text-anchor:start;fill:#87aade;fill-opacity:1;stroke-width:0.25"
         x="89.038986"
         y="129.61475"
         id="tspan396-9"><tspan
           style="fill:#56cbf9;fill-opacity:1"
           id="tspan6655">B</tspan><tspan
           style="fill:#ff729f;fill-opacity:1"
           id="tspan400-6">swap</tspan></tspan></text>
    <path
       style="fill:#56cbf9;fill-opacity:1;stroke-width:0.181646;stroke-opacity:0.396078"
       d="m 95.052773,128.51225 c 0,0 -0.13842,-1.01908 -0.530443,-1.2377 -0.826262,-0.46077 -2.806917,0.41993 -2.806917,0.41993 0,0 2.471012,-1.72072 3.403667,-0.99458 0.476993,0.37138 -0.06631,1.81235 -0.06631,1.81235 z"
       id="path465-4-5" />
    <path
       style="fill:#ff729f;fill-opacity:1;stroke-width:0.181646;stroke-opacity:0.396078"
       d="m 89.636547,129.85709 c 0,0 0.13842,1.01908 0.530444,1.2377 0.82626,0.46077 2.806916,-0.41993 2.806916,-0.41993 0,0 -2.471012,1.72072 -3.403667,0.99458 -0.476992,-0.37138 0.06631,-1.81235 0.06631,-1.81235 z"
       id="path465-4-7-9" />
    <path
       style="fill:#56cbf9;fill-opacity:1;stroke:#87aade;stroke-width:0;stroke-dasharray:none;stroke-opacity:1"
       d="m 95.060219,128.52864 -0.500092,-0.56462 0.500092,0.20434 0.462449,-0.3334 z"
       id="path3676" />
    <path
       style="fill:#ff80b2;fill-opacity:1;stroke:#87aade;stroke-width:0;stroke-dasharray:none;stroke-opacity:1"
       d="m 89.632315,129.82999 -0.500092,0.56462 0.500092,-0.20434 0.462449,0.3334 z"
       id="path3676-1" />
  </g>
</svg>
